<?xml version="1.0" encoding="UTF-8"?><svg xmlns="http://www.w3.org/2000/svg" viewBox="0 0 170.33 170.25"><defs><style>.e{fill:#fcf9f8;}</style></defs><g id="a"/><g id="b"><g id="c"><g id="d"><path class="e" d="M4.85,72.97H23.7c.35,0,.64,.29,.64,.64v23.06c0,.35-.29,.64-.64,.64H5c-2.76,0-5-2.24-5-5v-14.49c0-2.68,2.17-4.85,4.85-4.85Z"/><rect class="e" x="24.33" y="72.97" width="24.33" height="24.33"/><path class="e" d="M24.33,97.25h24.33v24.33H30.21c-3.24,0-5.87-2.63-5.87-5.87v-18.46h0Z"/><path class="e" d="M28.35,48.64h17.41c1.61,0,2.91,1.3,2.91,2.91v21.42H24.33v-20.32c0-2.21,1.8-4.01,4.01-4.01Z"/><path class="e" d="M84.55,97.28h0c7.06,0,12.79,5.73,12.79,12.79v11.04c0,.28-.23,.5-.5,.5h-18.43c-2.98,0-5.4-2.42-5.4-5.4v-7.39c0-6.37,5.17-11.55,11.55-11.55Z"/><path class="e" d="M80.62,48.64h12.81c2.16,0,3.91,1.75,3.91,3.91v17.26c0,1.75-1.42,3.17-3.17,3.17h-10.42c-5.93,0-10.74-4.81-10.74-10.74v-5.97c0-4.21,3.41-7.62,7.62-7.62Z"/><path class="e" d="M48.67,72.97h19.22c2.82,0,5.11,2.29,5.11,5.11v10.1c0,5.03-4.09,9.12-9.12,9.12h-15.22v-24.33h0Z"/><path class="e" d="M73,145.91h19.63c2.59,0,4.7,2.11,4.7,4.7v14.94c0,2.59-2.11,4.7-4.7,4.7h-14.94c-2.59,0-4.7-2.11-4.7-4.7v-19.63h0Z"/><rect class="e" x="73" width="24.33" height="24.33" rx="4.33" ry="4.33"/><rect class="e" x="97.33" y="24.3" width="24.33" height="24.33" rx="5.45" ry="5.45"/><path class="e" d="M99.78,72.97h17c2.7,0,4.9,2.19,4.9,4.9v16.15c0,1.81-1.47,3.29-3.29,3.29h-9.43c-6.41,0-11.62-5.21-11.62-11.62v-10.27c0-1.35,1.09-2.44,2.44-2.44Z"/><path class="e" d="M97.33,121.58h18.31c3.32,0,6.02,2.7,6.02,6.02v12.29c0,3.32-2.7,6.02-6.02,6.02h-12.29c-3.32,0-6.02-2.7-6.02-6.02v-18.31h0Z"/><path class="e" d="M124.68,97.25h15.87c3,0,5.44,2.44,5.44,5.44v13.45c0,3-2.44,5.44-5.44,5.44h-17.32c-.87,0-1.57-.71-1.57-1.57v-19.74c0-1.67,1.35-3.02,3.02-3.02Z"/><path class="e" d="M151.27,72.97h8.84c5.64,0,10.22,4.58,10.22,10.22v4.1c0,5.52-4.48,10-10,10h-9.06c-2.91,0-5.27-2.36-5.27-5.27v-13.79c0-2.91,2.36-5.27,5.27-5.27Z"/><path class="e" d="M123.34,48.64h15.56c3.92,0,7.1,3.18,7.1,7.1v6.68c0,5.82-4.73,10.55-10.55,10.55h-6.68c-3.92,0-7.1-3.18-7.1-7.1v-15.56c0-.92,.75-1.67,1.67-1.67Z"/><path class="e" d="M53.43,24.3h13.36c3.43,0,6.22,2.79,6.22,6.22v8.34c0,5.4-4.38,9.78-9.78,9.78h-12.41c-1.19,0-2.15-.96-2.15-2.15V29.06c0-2.63,2.13-4.76,4.76-4.76Z"/><path class="e" d="M48.67,121.58h13.47c6,0,10.86,4.87,10.86,10.86v13.47h-18.9c-3,0-5.43-2.43-5.43-5.43v-18.9h0Z"/></g></g></g></svg>