<?xml version="1.0" encoding="UTF-8"?><svg xmlns="http://www.w3.org/2000/svg" xmlns:xlink="http://www.w3.org/1999/xlink" viewBox="0 0 181.9 174.93"><defs><style>.am{filter:url(#s);}.an{fill:#b4efff;}.ao{filter:url(#j);}.ap{filter:url(#al);}.aq{fill:#2240e3;}.ar{filter:url(#e);}.as{fill:#00157f;}.at{filter:url(#ag);}.au{filter:url(#ab);}.av{filter:url(#ak);}.aw{filter:url(#ae);}.ax{filter:url(#r);}.ay{filter:url(#o);}.b`{filter:url(#i);}.ba{filter:url(#x);}.bb{filter:url(#ai);}.bc{filter:url(#w);}.bd{filter:url(#aj);}.be{filter:url(#u);}.bf{filter:url(#y);}.bg{filter:url(#ad);}.bh{filter:url(#v);}.bi{filter:url(#aa);}.bj{filter:url(#ah);}.bk{filter:url(#m);}.bl{filter:url(#t);}.bm{filter:url(#g);}.bn{filter:url(#h);}.bo{filter:url(#a`);}.bp{filter:url(#p);}.bq{filter:url(#af);}.br{filter:url(#k);}.bs{filter:url(#q);}.bt{filter:url(#n);}.bu{filter:url(#l);}.bv{filter:url(#f);}.bw{filter:url(#ac);}</style><filter id="e"><feGaussianBlur stdDeviation="4"/></filter><filter id="f"><feGaussianBlur stdDeviation="4"/></filter><filter id="g"><feGaussianBlur stdDeviation="4"/></filter><filter id="h"><feGaussianBlur stdDeviation="4"/></filter><filter id="i"><feGaussianBlur stdDeviation="4"/></filter><filter id="j"><feGaussianBlur stdDeviation="4"/></filter><filter id="k"><feGaussianBlur stdDeviation="4"/></filter><filter id="l"><feGaussianBlur stdDeviation="4"/></filter><filter id="m"><feGaussianBlur stdDeviation="4"/></filter><filter id="n"><feGaussianBlur stdDeviation="4"/></filter><filter id="o"><feGaussianBlur stdDeviation="4"/></filter><filter id="p"><feGaussianBlur stdDeviation="4"/></filter><filter id="q"><feGaussianBlur stdDeviation="4"/></filter><filter id="r"><feGaussianBlur stdDeviation="4"/></filter><filter id="s"><feGaussianBlur stdDeviation="4"/></filter><filter id="t"><feGaussianBlur stdDeviation="4"/></filter><filter id="u"><feGaussianBlur stdDeviation="4"/></filter><filter id="v"><feGaussianBlur stdDeviation="4"/></filter><filter id="w"><feGaussianBlur stdDeviation="4"/></filter><filter id="x"><feGaussianBlur stdDeviation="4"/></filter><filter id="y"><feGaussianBlur stdDeviation="4"/></filter><filter id="a`"><feGaussianBlur stdDeviation="4"/></filter><filter id="aa"><feGaussianBlur stdDeviation="4"/></filter><filter id="ab"><feGaussianBlur stdDeviation="4"/></filter><filter id="ac"><feGaussianBlur stdDeviation="4"/></filter><filter id="ad"><feGaussianBlur stdDeviation="4"/></filter><filter id="ae"><feGaussianBlur stdDeviation="4"/></filter><filter id="af"><feGaussianBlur stdDeviation="4"/></filter><filter id="ag"><feGaussianBlur stdDeviation="4"/></filter><filter id="ah"><feGaussianBlur stdDeviation="4"/></filter><filter id="ai"><feGaussianBlur stdDeviation="4"/></filter><filter id="aj"><feGaussianBlur stdDeviation="4"/></filter><filter id="ak"><feGaussianBlur stdDeviation="4"/></filter><filter id="al"><feGaussianBlur stdDeviation="4"/></filter></defs><g id="a"/><g id="b"><g id="c"><g id="d"><g class="ar"><path class="an" d="M65.43,99.75H14.33c-2.76,0-5-2.24-5-5v-14.49c0-2.68,2.17-4.85,4.85-4.85h51.25c.35,0,.64,.29,.64,.64v23.06c0,.35-.29,.64-.64,.64Z"/></g><g class="bv"><rect class="an" x="33.66" y="75.42" width="24.33" height="24.33"/></g><g class="bm"><path class="an" d="M58,124.03h-18.46c-3.24,0-5.87-2.63-5.87-5.87v-18.46h24.33v24.33Z"/></g><g class="bn"><path class="an" d="M58,103.64h-24.33V55.1c0-2.22,1.8-4.01,4.01-4.01h17.41c1.61,0,2.91,1.3,2.91,2.91v49.65Z"/></g><g class="b`"><path class="an" d="M106.16,124.06h-18.43c-2.98,0-5.4-2.42-5.4-5.4v-7.39c0-6.38,5.17-11.55,11.55-11.55h0c7.06,0,12.79,5.72,12.79,12.79v11.04c0,.28-.23,.5-.5,.5Z"/></g><g class="ao"><path class="an" d="M103.49,75.42h-10.42c-5.93,0-10.74-4.81-10.74-10.74v-5.97c0-4.21,3.41-7.62,7.62-7.62h12.81c2.16,0,3.91,1.75,3.91,3.91v17.26c0,1.75-1.42,3.17-3.17,3.17Z"/></g><g class="br"><path class="an" d="M73.21,99.75h-15.22v-24.33h19.22c2.82,0,5.11,2.29,5.11,5.11v10.1c0,5.04-4.08,9.12-9.12,9.12Z"/></g><g class="bu"><path class="an" d="M101.96,172.69h-14.94c-2.6,0-4.7-2.1-4.7-4.7v-19.63h19.63c2.6,0,4.7,2.1,4.7,4.7v14.94c0,2.6-2.1,4.7-4.7,4.7Z"/></g><g class="bk"><rect class="an" x="82.33" y="2.45" width="24.33" height="24.33" rx="4.33" ry="4.33"/></g><g class="bt"><rect class="an" x="106.66" y="26.75" width="24.33" height="24.33" rx="5.45" ry="5.45"/></g><g class="ay"><path class="an" d="M127.71,99.75h-9.43c-6.42,0-11.62-5.2-11.62-11.62v-10.27c0-1.35,1.09-2.44,2.44-2.44h17c2.7,0,4.9,2.19,4.9,4.9v16.15c0,1.81-1.47,3.29-3.29,3.29Z"/></g><g class="bp"><path class="an" d="M124.97,148.36h-12.29c-3.33,0-6.02-2.7-6.02-6.02v-18.31h18.31c3.33,0,6.02,2.7,6.02,6.02v12.29c0,3.33-2.7,6.02-6.02,6.02Z"/></g><g class="bs"><path class="an" d="M149.89,124.03h-17.32c-.87,0-1.57-.7-1.57-1.57v-19.74c0-1.67,1.35-3.02,3.02-3.02h15.87c3,0,5.44,2.44,5.44,5.44v13.45c0,3-2.44,5.44-5.44,5.44Z"/></g><g class="ax"><path class="an" d="M169.66,99.75h-9.06c-2.91,0-5.27-2.36-5.27-5.27v-13.79c0-2.91,2.36-5.27,5.27-5.27h8.84c5.65,0,10.22,4.58,10.22,10.22v4.1c0,5.53-4.48,10-10,10Z"/></g><g class="am"><path class="an" d="M144.78,75.42h-6.68c-3.92,0-7.1-3.18-7.1-7.1v-15.56c0-.92,.75-1.67,1.67-1.67h15.56c3.92,0,7.1,3.18,7.1,7.1v6.68c0,5.83-4.72,10.55-10.55,10.55Z"/></g><g class="bl"><path class="an" d="M72.55,51.09h-12.41c-1.19,0-2.15-.96-2.15-2.15V31.51c0-2.63,2.13-4.76,4.76-4.76h13.36c3.43,0,6.22,2.78,6.22,6.22v8.34c0,5.4-4.38,9.78-9.78,9.78Z"/></g><g class="be"><path class="an" d="M82.33,148.36h-18.9c-3,0-5.43-2.43-5.43-5.43v-18.9h13.47c6,0,10.86,4.86,10.86,10.86v13.47Z"/></g><g class="bh"><path class="an" d="M62.56,99.74H11.46c-2.76,0-5-2.24-5-5v-14.49c0-2.68,2.17-4.85,4.85-4.85H62.56c.35,0,.64,.29,.64,.64v23.06c0,.35-.29,.64-.64,.64Z"/></g><g class="bc"><rect class="an" x="30.8" y="75.4" width="24.33" height="24.33"/></g><g class="ba"><path class="an" d="M55.13,124.01h-18.46c-3.24,0-5.87-2.63-5.87-5.87v-18.46h24.33v24.33Z"/></g><g class="bf"><path class="an" d="M55.13,103.63H30.8V55.08c0-2.22,1.8-4.01,4.01-4.01h17.41c1.61,0,2.91,1.3,2.91,2.91v49.65Z"/></g><g class="bo"><path class="an" d="M103.3,124.04h-18.43c-2.98,0-5.4-2.42-5.4-5.4v-7.39c0-6.38,5.17-11.55,11.55-11.55h0c7.06,0,12.79,5.72,12.79,12.79v11.04c0,.28-.23,.5-.5,.5Z"/></g><g class="bi"><path class="an" d="M100.63,75.4h-10.42c-5.93,0-10.74-4.81-10.74-10.74v-5.97c0-4.21,3.41-7.62,7.62-7.62h12.81c2.16,0,3.91,1.75,3.91,3.91v17.26c0,1.75-1.42,3.17-3.17,3.17Z"/></g><g class="au"><path class="an" d="M70.35,99.74h-15.22v-24.33h19.22c2.82,0,5.11,2.29,5.11,5.11v10.1c0,5.04-4.08,9.12-9.12,9.12Z"/></g><g class="bw"><path class="an" d="M99.1,172.68h-14.94c-2.6,0-4.7-2.1-4.7-4.7v-19.63h19.63c2.6,0,4.7,2.1,4.7,4.7v14.94c0,2.6-2.1,4.7-4.7,4.7Z"/></g><g class="bg"><rect class="an" x="79.47" y="2.43" width="24.33" height="24.33" rx="4.33" ry="4.33"/></g><g class="aw"><rect class="an" x="103.8" y="26.74" width="24.33" height="24.33" rx="5.45" ry="5.45"/></g><g class="bq"><path class="an" d="M124.85,99.74h-9.43c-6.42,0-11.62-5.2-11.62-11.62v-10.27c0-1.35,1.09-2.44,2.44-2.44h17c2.7,0,4.9,2.19,4.9,4.9v16.15c0,1.81-1.47,3.29-3.29,3.29Z"/></g><g class="at"><path class="an" d="M122.11,148.35h-12.29c-3.33,0-6.02-2.7-6.02-6.02v-18.31h18.31c3.33,0,6.02,2.7,6.02,6.02v12.29c0,3.33-2.7,6.02-6.02,6.02Z"/></g><g class="bj"><path class="an" d="M147.03,124.01h-17.32c-.87,0-1.57-.7-1.57-1.57v-19.74c0-1.67,1.35-3.02,3.02-3.02h15.87c3,0,5.44,2.44,5.44,5.44v13.45c0,3-2.44,5.44-5.44,5.44Z"/></g><g class="bb"><path class="an" d="M166.8,99.74h-9.06c-2.91,0-5.27-2.36-5.27-5.27v-13.79c0-2.91,2.36-5.27,5.27-5.27h8.84c5.65,0,10.22,4.58,10.22,10.22v4.1c0,5.53-4.48,10-10,10Z"/></g><g class="bd"><path class="an" d="M141.91,75.4h-6.68c-3.92,0-7.1-3.18-7.1-7.1v-15.56c0-.92,.75-1.67,1.67-1.67h15.56c3.92,0,7.1,3.18,7.1,7.1v6.68c0,5.83-4.72,10.55-10.55,10.55Z"/></g><g class="av"><path class="an" d="M69.69,51.07h-12.41c-1.19,0-2.15-.96-2.15-2.15V31.5c0-2.63,2.13-4.76,4.76-4.76h13.36c3.43,0,6.22,2.78,6.22,6.22v8.34c0,5.4-4.38,9.78-9.78,9.78Z"/></g><g class="ap"><path class="an" d="M79.47,148.35h-18.9c-3,0-5.43-2.43-5.43-5.43v-18.9h13.47c6,0,10.86,4.86,10.86,10.86v13.47Z"/></g><path class="as" d="M7.71,75.42H58.96c.35,0,.64,.29,.64,.64v23.06c0,.35-.29,.64-.64,.64H7.86c-2.76,0-5-2.24-5-5v-14.49c0-2.68,2.17-4.85,4.85-4.85Z"/><rect class="as" x="27.2" y="75.42" width="24.33" height="24.33"/><path class="as" d="M27.2,99.69h24.33v24.33h-18.46c-3.24,0-5.87-2.63-5.87-5.87v-18.46h0Z"/><path class="as" d="M31.21,51.09h17.41c1.61,0,2.91,1.3,2.91,2.91v49.65H27.2V55.1c0-2.21,1.8-4.01,4.01-4.01Z"/><path class="as" d="M87.41,99.72h0c7.06,0,12.79,5.73,12.79,12.79v11.04c0,.28-.23,.5-.5,.5h-18.43c-2.98,0-5.4-2.42-5.4-5.4v-7.39c0-6.37,5.17-11.55,11.55-11.55Z"/><path class="as" d="M83.48,51.09h12.81c2.16,0,3.91,1.75,3.91,3.91v17.26c0,1.75-1.42,3.17-3.17,3.17h-10.42c-5.93,0-10.74-4.81-10.74-10.74v-5.97c0-4.21,3.41-7.62,7.62-7.62Z"/><path class="as" d="M51.53,75.42h19.22c2.82,0,5.11,2.29,5.11,5.11v10.1c0,5.03-4.09,9.12-9.12,9.12h-15.22v-24.33h0Z"/><path class="as" d="M75.86,148.36h19.63c2.59,0,4.7,2.11,4.7,4.7v14.94c0,2.59-2.11,4.7-4.7,4.7h-14.94c-2.59,0-4.7-2.11-4.7-4.7v-19.63h0Z"/><rect class="as" x="75.86" y="2.45" width="24.33" height="24.33" rx="4.33" ry="4.33"/><rect class="as" x="100.2" y="26.75" width="24.33" height="24.33" rx="5.45" ry="5.45"/><path class="as" d="M102.64,75.42h17c2.7,0,4.9,2.19,4.9,4.9v16.15c0,1.81-1.47,3.29-3.29,3.29h-9.43c-6.41,0-11.62-5.21-11.62-11.62v-10.27c0-1.35,1.09-2.44,2.44-2.44Z"/><path class="as" d="M100.2,124.03h18.31c3.32,0,6.02,2.7,6.02,6.02v12.29c0,3.32-2.7,6.02-6.02,6.02h-12.29c-3.32,0-6.02-2.7-6.02-6.02v-18.31h0Z"/><path class="as" d="M127.55,99.69h15.87c3,0,5.44,2.44,5.44,5.44v13.45c0,3-2.44,5.44-5.44,5.44h-17.32c-.87,0-1.57-.71-1.57-1.57v-19.74c0-1.67,1.35-3.02,3.02-3.02Z"/><path class="as" d="M154.13,75.42h8.84c5.64,0,10.22,4.58,10.22,10.22v4.1c0,5.52-4.48,10-10,10h-9.06c-2.91,0-5.27-2.36-5.27-5.27v-13.79c0-2.91,2.36-5.27,5.27-5.27Z"/><path class="as" d="M126.2,51.09h15.56c3.92,0,7.1,3.18,7.1,7.1v6.68c0,5.82-4.73,10.55-10.55,10.55h-6.68c-3.92,0-7.1-3.18-7.1-7.1v-15.56c0-.92,.75-1.67,1.67-1.67Z"/><path class="as" d="M56.29,26.75h13.36c3.43,0,6.22,2.79,6.22,6.22v8.34c0,5.4-4.38,9.78-9.78,9.78h-12.41c-1.19,0-2.15-.96-2.15-2.15V31.51c0-2.63,2.13-4.76,4.76-4.76Z"/><path class="as" d="M51.53,124.03h13.47c6,0,10.86,4.87,10.86,10.86v13.47h-18.9c-3,0-5.43-2.43-5.43-5.43v-18.9h0Z"/><path class="aq" d="M4.85,75.4H56.1c.35,0,.64,.29,.64,.64v23.06c0,.35-.29,.64-.64,.64H5c-2.76,0-5-2.24-5-5v-14.49c0-2.68,2.17-4.85,4.85-4.85Z"/><rect class="aq" x="24.33" y="75.4" width="24.33" height="24.33"/><path class="aq" d="M24.33,99.68h24.33v24.33H30.21c-3.24,0-5.87-2.63-5.87-5.87v-18.46h0Z"/><path class="aq" d="M28.35,51.07h17.41c1.61,0,2.91,1.3,2.91,2.91v49.65H24.33V55.08c0-2.21,1.8-4.01,4.01-4.01Z"/><path class="aq" d="M84.55,99.71h0c7.06,0,12.79,5.73,12.79,12.79v11.04c0,.28-.23,.5-.5,.5h-18.43c-2.98,0-5.4-2.42-5.4-5.4v-7.39c0-6.37,5.17-11.55,11.55-11.55Z"/><path class="aq" d="M80.62,51.07h12.81c2.16,0,3.91,1.75,3.91,3.91v17.26c0,1.75-1.42,3.17-3.17,3.17h-10.42c-5.93,0-10.74-4.81-10.74-10.74v-5.97c0-4.21,3.41-7.62,7.62-7.62Z"/><path class="aq" d="M48.67,75.4h19.22c2.82,0,5.11,2.29,5.11,5.11v10.1c0,5.03-4.09,9.12-9.12,9.12h-15.22v-24.33h0Z"/><path class="aq" d="M73,148.35h19.63c2.59,0,4.7,2.11,4.7,4.7v14.94c0,2.59-2.11,4.7-4.7,4.7h-14.94c-2.59,0-4.7-2.11-4.7-4.7v-19.63h0Z"/><rect class="aq" x="73" y="2.43" width="24.33" height="24.33" rx="4.33" ry="4.33"/><rect class="aq" x="97.33" y="26.74" width="24.33" height="24.33" rx="5.45" ry="5.45"/><path class="aq" d="M99.78,75.4h17c2.7,0,4.9,2.19,4.9,4.9v16.15c0,1.81-1.47,3.29-3.29,3.29h-9.43c-6.41,0-11.62-5.21-11.62-11.62v-10.27c0-1.35,1.09-2.44,2.44-2.44Z"/><path class="aq" d="M97.33,124.01h18.31c3.32,0,6.02,2.7,6.02,6.02v12.29c0,3.32-2.7,6.02-6.02,6.02h-12.29c-3.32,0-6.02-2.7-6.02-6.02v-18.31h0Z"/><path class="aq" d="M124.68,99.68h15.87c3,0,5.44,2.44,5.44,5.44v13.45c0,3-2.44,5.44-5.44,5.44h-17.32c-.87,0-1.57-.71-1.57-1.57v-19.74c0-1.67,1.35-3.02,3.02-3.02Z"/><path class="aq" d="M151.27,75.4h8.84c5.64,0,10.22,4.58,10.22,10.22v4.1c0,5.52-4.48,10-10,10h-9.06c-2.91,0-5.27-2.36-5.27-5.27v-13.79c0-2.91,2.36-5.27,5.27-5.27Z"/><path class="aq" d="M123.34,51.07h15.56c3.92,0,7.1,3.18,7.1,7.1v6.68c0,5.82-4.73,10.55-10.55,10.55h-6.68c-3.92,0-7.1-3.18-7.1-7.1v-15.56c0-.92,.75-1.67,1.67-1.67Z"/><path class="aq" d="M53.43,26.74h13.36c3.43,0,6.22,2.79,6.22,6.22v8.34c0,5.4-4.38,9.78-9.78,9.78h-12.41c-1.19,0-2.15-.96-2.15-2.15V31.5c0-2.63,2.13-4.76,4.76-4.76Z"/><path class="aq" d="M48.67,124.01h13.47c6,0,10.86,4.87,10.86,10.86v13.47h-18.9c-3,0-5.43-2.43-5.43-5.43v-18.9h0Z"/></g></g></g></svg>