<?xml version="1.0" encoding="utf-8"?>
<!-- Generator: Adobe Illustrator 24.2.1, SVG Export Plug-In . SVG Version: 6.00 Build 0)  -->
<svg version="1.1" xmlns="http://www.w3.org/2000/svg" xmlns:xlink="http://www.w3.org/1999/xlink" x="0px" y="0px"
	 viewBox="0 0 3000 2000" style="enable-background:new 0 0 3000 2000;" xml:space="preserve">
<style type="text/css">
	.st0{fill:#B2E0FE;}
	.st1{fill:#C8E9FE;}
	.st2{fill:#DAF0FF;}
	.st3{fill:#FFC587;}
	.st4{fill:#B4BD74;}
	.st5{fill:#D4D88A;}
	.st6{fill:#805030;}
	.st7{fill:#965F39;}
	.st8{fill:#BA7E54;}
	.st9{fill:#F2882C;}
	.st10{fill:#FFA75A;}
	.st11{fill:#851717;}
	.st12{fill:#2B2B20;}
	.st13{fill:#EE825E;}
	.st14{fill:#FFB040;}
	.st15{fill:#661919;}
	.st16{fill:#FF945C;}
	.st17{fill:#FFD35A;}
	.st18{fill:#4D2121;}
	.st19{fill:#4A523C;}
	.st20{fill:#D9400B;}
	.st21{fill:#4A2200;}
	.st22{fill:#FFE0C9;}
	.st23{fill:#EB520D;}
	.st24{fill:#262624;}
</style>
<g id="Background">
	<g>
		<ellipse class="st0" cx="1176.36" cy="616.71" rx="287.32" ry="254.38"/>
		
			<ellipse transform="matrix(0.7071 -0.7071 0.7071 0.7071 -329.7863 804.4883)" class="st1" cx="806.21" cy="800.33" rx="93.41" ry="93.41"/>
		<path class="st2" d="M2210.47,1078.65c-95.3-43.29-166.04-132.66-263.16-173.46c-76.58-32.17-166.63-30.64-242.07,4.13
			c-32.53,15-63.18,36.75-81.48,67.54c-27.69,46.6-22.71,106.32-4.1,157.24c18.62,50.92,49.39,96.4,72.78,145.3
			c15.95,33.35,28.56,71.98,15.92,106.71c-17.13,47.06-73.07,67.26-123.04,70.49c-55.99,3.63-111.82-6.43-167.67-11.78
			c-55.85-5.36-114.09-5.67-165.76,16.2c-51.67,21.87-95.3,70.55-96.31,126.65c-0.42,23.1,6.18,45.69,13.15,67.71
			c1.05,3.31,2.1,6.61,3.17,9.91c-101.86-5.42-203.68-9.87-305.21-10.23c-50.65-0.18-142.44,9.22-139.07-57.36
			c3.37-66.52,38.94-119.13,25.81-189.74c-18.64-100.22-93.72-190.63-85.95-292.09c8.99-117.48,133.09-205.18,258.19-217.94
			c117.8-12.02,241.14,26.79,353.4-8.74c110.67-35.02,183.7-135.25,223.93-237.9c17.58-44.86,30.76-91.81,57.4-132.57
			c70.9-108.5,220.49-148.27,356.37-147.39c53.8,0.34,108.59,5.83,157.81,26.15c94.25,38.9,157.07,130.55,170.23,226.17
			C2265.69,775.32,2175.73,931.5,2210.47,1078.65z"/>
		<path class="st0" d="M2244.7,1585.85c-14.49,16.02-30.91,30.83-50.41,41.21c-22.73,12.09-48.66,17.68-74.28,22.55
			c-311,59.1-629.73,32.63-948.11,15.68c-1.07-3.3-2.13-6.6-3.17-9.91c-6.97-22.02-13.57-44.61-13.15-67.71
			c1.01-56.09,44.65-104.77,96.31-126.65c51.67-21.87,109.9-21.56,165.76-16.2c55.85,5.35,111.68,15.42,167.67,11.78
			c49.98-3.23,105.91-23.43,123.04-70.49c12.65-34.73,0.03-73.37-15.92-106.71c-23.4-48.91-54.16-94.38-72.78-145.3
			c-18.61-50.91-23.6-110.64,4.1-157.24c18.31-30.79,48.95-52.54,81.48-67.54c75.44-34.77,165.5-36.31,242.07-4.13
			c97.12,40.8,167.86,130.17,263.16,173.46c1.76,7.44,3.83,14.86,6.26,22.26c20.36,62.08,63.82,115.47,87.34,176.58
			C2343.67,1380.39,2320.19,1502.35,2244.7,1585.85z"/>
		<path class="st3" d="M488.76,1606.73c0,195.44,1986.55,195.44,1986.55,0H488.76z"/>
	</g>
</g>
<g id="Items_on_the_Background">
	<g>
		<path class="st4" d="M2237.6,1235.91c16.13-28.38,34.98-53.73,52.7-80.35c5.47-8.21,11.02-17.24,14.63-27.01
			c4.82-13.03-6.21-25.42-14.85-16.65c-0.06,0.06-0.11,0.12-0.17,0.17c-5.93,6.07-11.75,12.34-17.45,18.8
			c6.87-49.4,33.8-90.45,61.61-124.37c2.21-2.7,3.84-6.22,4.4-10.12c1.84-12.65-7.97-16.67-15.19-13.89
			c-5.93,2.28-11.12,7.59-17.03,9.97c4.78-24.95,15.58-46.58,28.36-66.43c12.13-18.84-1.46-46.23-18.5-37.14
			c-0.14,0.08-0.28,0.15-0.42,0.23c-14.01,7.65-25.72,21.8-36,37c-17.6,26.03-31.97,56.01-42.29,88.19l-2.22-30.17
			c-0.8-10.82-11.19-14.03-15.83-4.81c-0.03,0.07-0.07,0.14-0.1,0.2c-3.37,6.82-5.1,14.79-6.62,22.65
			c-6.47,33.51-10.1,67.86-10.78,102.15c-0.25-0.22-0.5-0.44-0.74-0.67c-5.96-5.7-14.54-2.08-17.1,7.56
			c-0.16,0.61-0.31,1.21-0.46,1.81c-11.75,48.26-7.73,99.73-3.31,149.24c1.48,16.5,2.98,33,4.52,49.49
			c0.84,9.05,5.8,18.31,13.71,15.13c7.2-2.89,7.87-14.84,10.14-23.07C2215.37,1279.33,2225.78,1256.71,2237.6,1235.91z"/>
		<path class="st4" d="M2111.41,1226.72c-11.85-30.42-26.83-58.23-40.51-87.14c-4.22-8.92-8.41-18.66-10.56-28.84
			c-2.88-13.59,9.82-24.26,17.1-14.32c0.05,0.07,0.1,0.13,0.14,0.2c4.99,6.86,9.84,13.91,14.54,21.13
			c0.35-49.87-20.34-94.39-42.95-131.98c-1.8-2.99-2.9-6.71-2.89-10.65c0.01-12.79,10.3-15.34,17.04-11.54
			c5.54,3.12,9.9,9.12,15.41,12.34c-1.11-25.38-8.67-48.34-18.44-69.83c-9.27-20.39,8.14-45.53,23.68-34.07
			c0.13,0.09,0.26,0.19,0.38,0.29c12.75,9.6,22.29,25.3,30.26,41.83c13.64,28.3,23.53,60.05,29.07,93.38l6.56-29.53
			c2.35-10.59,13.1-12.26,16.36-2.46c0.02,0.07,0.05,0.14,0.07,0.22c2.35,7.23,2.91,15.37,3.27,23.37
			c1.55,34.09,0.16,68.61-4.12,102.63c0.28-0.18,0.56-0.36,0.83-0.56c6.72-4.78,14.69,0.05,15.82,9.96
			c0.07,0.62,0.13,1.24,0.19,1.85c4.64,49.45-6.79,99.8-18.34,148.14c-3.85,16.11-7.73,32.22-11.64,48.31
			c-2.15,8.84-8.39,17.27-15.75,12.99c-6.71-3.9-5.64-15.83-6.69-24.3C2127.12,1272.9,2120.1,1249.01,2111.41,1226.72z"/>
		<path class="st5" d="M2205.26,1205.05c11.32-38.23,26.43-74.34,39.96-111.34c4.17-11.41,8.25-23.77,9.96-36.06
			c2.29-16.41-13.1-25.11-20.71-11.68c-0.05,0.09-0.1,0.18-0.15,0.27c-5.21,9.27-10.25,18.71-15.11,28.31
			c-4.16-57.16,16.26-114.05,39.39-163.51c1.84-3.93,2.82-8.51,2.52-13.03c-0.97-14.68-12.98-14.74-20.44-8.5
			c-6.12,5.12-10.69,13.23-16.76,18.46c-0.63-29.45,6.32-57.92,15.93-85.32c9.11-26-12.76-50.01-29.75-32.52
			c-0.14,0.14-0.28,0.29-0.42,0.44c-13.92,14.57-23.69,35.26-31.6,56.46c-13.54,36.3-22.5,75.51-26.36,115.33l-9.75-32.08
			c-3.5-11.51-15.97-10.43-18.97,1.73c-0.02,0.09-0.04,0.18-0.07,0.27c-2.16,8.96-2.18,18.46-2,27.74
			c0.78,39.58,4.97,78.82,12.45,116.69c-0.33-0.12-0.67-0.26-0.99-0.41c-8.08-3.61-16.87,4.15-17.42,15.84
			c-0.03,0.73-0.06,1.46-0.08,2.18c-1.61,58.08,15.3,112.7,32.19,164.98c5.63,17.43,11.3,34.84,16.99,52.23
			c3.13,9.55,10.93,17.49,19.06,10.52c7.41-6.35,5.29-19.74,5.85-29.77C2190.7,1262.46,2196.97,1233.07,2205.26,1205.05z"/>
		<path class="st6" d="M2208.7,1606.73h-31.73l-46.45-315.66h145.76c7.59,0,13.13,7.17,11.21,14.52L2208.7,1606.73z"/>
		<path class="st7" d="M2182.02,1606.73h-56.97l-57.9-301.9c-1.37-7.14,4.1-13.77,11.38-13.77h136.53c7.07,0,12.49,6.28,11.46,13.27
			L2182.02,1606.73z"/>
	</g>
	<g>
		<polygon class="st8" points="933.81,954.74 901.42,954.74 931.46,862.92 946.13,862.92 		"/>
		<path class="st7" d="M1062.31,954.74h-96.71c-5.47,0-10.26-3.67-11.69-8.95l-35.33-130.38c-2.09-7.7,3.71-15.28,11.69-15.28h96.71
			c5.47,0,10.26,3.67,11.69,8.95l35.33,130.38C1076.09,947.16,1070.29,954.74,1062.31,954.74z"/>
		<path class="st8" d="M968.48,933.64l-29.72-109.67c-0.9-3.33,1.6-6.6,5.05-6.6h75.25c2.36,0,4.43,1.58,5.05,3.87l29.72,109.67
			c0.9,3.33-1.6,6.6-5.05,6.6h-75.25C971.17,937.5,969.1,935.92,968.48,933.64z"/>
		<path class="st7" d="M1051.91,939.95c-5.38-3.79-16.85-30.26-21.46-34.42l0.08-0.1c0.56-0.72,0.2-1.93-0.84-2.81l-7.6-6.43
			c-1.39-1.18-3.08-1.98-4.72-2.25l-10.31-1.69h-1.82c-0.62-0.57-1.22-1.15-1.78-1.75c-0.99-1.06-1.89-2.18-2.68-3.35
			c5.62-0.2,11-1.01,16.12-2.44c1.66-0.46,2.36-1.95,1.75-3.69c-10.99-31.27-38.56-40.17-45.67-26.23
			c-8.92,1.42-5.05,14.14,0.1,26.28c0.73,1.71,2.54,3.17,4.53,3.64c4.83,1.12,9.54,1.87,14.13,2.23c0.45,1.92,0.58,3.67,0.45,5.31
			h-2.02l-9.26,1.24c-1.69,0.23-2.96,1.15-3.46,2.54l-3.16,8.62c-0.32,0.86,0.47,2.03,1.62,2.41l3,0.98l-0.24,14.75l-0.38,18.57
			c5.5,9.35,19.99-2.71,22.22,8.02c12.96-6.72,23.98-9.08,32.51-5.22c-4.86-10.33-8.12-20.1-9.84-29.33l1.64-2.1
			c2.33,2.02,15.99,26.78,18.16,28.28L1051.91,939.95z"/>
	</g>
	<g>
		<path class="st4" d="M1108.26,1474.01H754.61c-26.04,0-47.15-21.11-47.15-47.15v-424.97c0-26.04,21.11-47.15,47.15-47.15h353.65
			c26.04,0,47.15,21.11,47.15,47.15v424.97C1155.41,1452.9,1134.3,1474.01,1108.26,1474.01z"/>
		<path class="st5" d="M1064.14,1474.01H710.49c-26.04,0-47.15-21.11-47.15-47.15v-424.97c0-26.04,21.11-47.15,47.15-47.15h353.65
			c26.04,0,47.15,21.11,47.15,47.15v424.97C1111.29,1452.9,1090.18,1474.01,1064.14,1474.01z"/>
		<path class="st4" d="M1054.85,1131.31H724.88c-13.4,0-24.26-10.86-24.26-24.26v-83.1c0-13.4,10.86-24.26,24.26-24.26h329.97
			c13.4,0,24.26,10.86,24.26,24.26v83.1C1079.1,1120.45,1068.24,1131.31,1054.85,1131.31z"/>
		<path class="st4" d="M1054.85,1290.73H724.88c-13.4,0-24.26-10.86-24.26-24.26v-83.1c0-13.4,10.86-24.26,24.26-24.26h329.97
			c13.4,0,24.26,10.86,24.26,24.26v83.1C1079.1,1279.87,1068.24,1290.73,1054.85,1290.73z"/>
		<path class="st4" d="M1054.85,1450.16H724.88c-13.4,0-24.26-10.86-24.26-24.26v-83.1c0-13.4,10.86-24.26,24.26-24.26h329.97
			c13.4,0,24.26,10.86,24.26,24.26v83.1C1079.1,1439.3,1068.24,1450.16,1054.85,1450.16z"/>
		<path class="st5" d="M1043.32,1121.2H713.35c-13.4,0-24.26-10.86-24.26-24.26v-83.1c0-13.4,10.86-24.26,24.26-24.26h329.97
			c13.4,0,24.26,10.86,24.26,24.26v83.1C1067.58,1110.34,1056.72,1121.2,1043.32,1121.2z"/>
		<path class="st5" d="M1043.32,1280.62H713.35c-13.4,0-24.26-10.86-24.26-24.26v-83.1c0-13.4,10.86-24.26,24.26-24.26h329.97
			c13.4,0,24.26,10.86,24.26,24.26v83.1C1067.58,1269.76,1056.72,1280.62,1043.32,1280.62z"/>
		<path class="st5" d="M1043.32,1440.05H713.35c-13.4,0-24.26-10.86-24.26-24.26v-83.1c0-13.4,10.86-24.26,24.26-24.26h329.97
			c13.4,0,24.26,10.86,24.26,24.26v83.1C1067.58,1429.19,1056.72,1440.05,1043.32,1440.05z"/>
		<circle class="st4" cx="870.3" cy="1376.15" r="14.87"/>
		
			<ellipse transform="matrix(0.1594 -0.9872 0.9872 0.1594 -627.1381 2007.9203)" class="st5" cx="865.55" cy="1372.24" rx="14.87" ry="14.87"/>
		
			<ellipse transform="matrix(0.5519 -0.8339 0.8339 0.5519 -633.1256 1275.5891)" class="st4" cx="870.3" cy="1226.88" rx="14.87" ry="14.87"/>
		<circle class="st5" cx="865.55" cy="1222.97" r="14.87"/>
		
			<ellipse transform="matrix(0.2791 -0.9603 0.9603 0.2791 -407.3655 1612.6351)" class="st4" cx="870.3" cy="1077.62" rx="14.87" ry="14.87"/>
		<circle class="st5" cx="865.55" cy="1073.7" r="14.87"/>
		<polygon class="st7" points="727.32,1606.73 703.03,1606.73 703.03,1474.01 751.61,1474.01 		"/>
		<polygon class="st7" points="1090.85,1606.73 1115.14,1606.73 1115.14,1474.01 1066.56,1474.01 		"/>
	</g>
	<g>
		<path class="st9" d="M1701.99,615.59l30.6-41.12c5.84-7.84,15.77-11.48,25.29-9.24l185.02,43.37
			c13.19,3.16,26.53-4.55,30.45-17.53c20.47-67.88,32.04-136.81,35.29-206.72c0.81-17.48-13.84-31.75-31.29-30.42l-282.66,21.57
			c-15.29,1.17-26.29,15.13-23.9,30.28c9.52,60.34,11.64,128.03,7.96,201.5C1678.12,619.98,1694.38,625.81,1701.99,615.59z"/>
		<path class="st10" d="M1687.74,613.22l30.6-41.12c5.84-7.84,15.77-11.48,25.29-9.24l185.02,43.37
			c13.19,3.16,26.53-4.55,30.45-17.53c20.47-67.88,32.04-136.81,35.29-206.72c0.81-17.48-13.84-31.75-31.29-30.42l-282.66,21.57
			c-15.29,1.17-26.29,15.13-23.9,30.28c9.52,60.34,11.64,128.03,7.96,201.5C1663.87,617.62,1680.13,623.45,1687.74,613.22z"/>
		<g>
			<g>
				<path class="st9" d="M1703.62,418.16l226.48-3.67c6.42-0.1,12.23-3.34,12.88-7.26l0,0c0.65-3.94-4.19-6.96-10.71-6.72
					l-229.05,8.47c-2.79,0.1-4.92,2.23-4.8,4.74l0,0C1698.55,416.22,1700.86,418.2,1703.62,418.16z"/>
				<path class="st9" d="M1705.14,453.47l216.78,13.71c6.04,0.38,11.5-2.17,12.09-5.72l0,0c0.59-3.58-3.98-6.72-10.11-6.99
					l-219.12-9.62c-2.71-0.12-4.79,1.71-4.68,4.07l0,0C1700.2,451.26,1702.45,453.3,1705.14,453.47z"/>
				<path class="st9" d="M1706.56,486.66l207.88,28.57c5.71,0.78,10.84-1.18,11.38-4.43l0,0c0.54-3.26-3.79-6.49-9.58-7.18
					l-210.03-25.07c-2.64-0.31-4.66,1.24-4.56,3.46l0,0C1701.76,484.22,1703.95,486.3,1706.56,486.66z"/>
				<path class="st9" d="M1707.91,517.9l199.7,41.32c5.41,1.12,10.26-0.35,10.75-3.32l0,0c0.49-2.99-3.61-6.28-9.09-7.32
					l-201.68-38.31c-2.57-0.49-4.54,0.83-4.45,2.92l0,0C1703.23,515.27,1705.36,517.38,1707.91,517.9z"/>
			</g>
		</g>
	</g>
	<g>
		<path class="st9" d="M1233.37,551.42l-34.52-52.9c-6.58-10.09-19.02-15.52-31.67-13.83l-245.71,32.95
			c-17.53,2.43-33.87-8.28-37.31-24.39c-17.97-84.17-24.25-168.67-19.61-253.47c1.16-21.21,21.99-36.9,44.48-33.46l364.24,55.76
			c19.7,3.02,32.21,21.05,27.19,39.09c-20.01,71.9-31.34,153.47-35.88,242.62C1263.8,559.24,1241.95,564.57,1233.37,551.42z"/>
		<path class="st10" d="M1252.17,550.06l-34.52-52.9c-6.58-10.09-19.02-15.52-31.67-13.83l-245.71,32.95
			c-17.53,2.43-33.87-8.28-37.31-24.39c-17.97-84.17-24.25-168.67-19.61-253.47c1.16-21.21,21.99-36.9,44.48-33.46l364.24,55.76
			c19.7,3.02,32.21,21.05,27.19,39.09c-20.01,71.9-31.34,153.47-35.88,242.62C1282.6,557.89,1260.74,563.21,1252.17,550.06z"/>
		<g>
			<g>
				<path class="st9" d="M1256.27,312.71l-293.58-28.24c-8.32-0.8-15.46-5.33-15.8-10.13l0,0c-0.35-4.83,6.32-7.97,14.75-6.99
					l296.3,34.31c3.6,0.42,6.11,3.21,5.63,6.24v0C1263.11,310.9,1259.86,313.06,1256.27,312.71z"/>
				<path class="st9" d="M1249.83,355.22L966.65,349c-7.89-0.17-14.65-3.83-14.97-8.19l0,0c-0.32-4.39,6.02-7.7,14.01-7.38
					l285.7,11.41c3.53,0.14,6,2.56,5.56,5.4l0,0C1256.52,353.07,1253.34,355.29,1249.83,355.22z"/>
				<path class="st9" d="M1243.77,395.16l-273.51,12.68c-7.51,0.35-13.93-2.57-14.22-6.54l0,0c-0.29-4,5.74-7.45,13.34-7.67
					l275.86-8.22c3.46-0.1,5.9,1.99,5.48,4.66l0,0C1250.31,392.73,1247.21,395,1243.77,395.16z"/>
				<path class="st9" d="M1238.07,432.78l-264.51,28.93c-7.16,0.78-13.27-1.51-13.53-5.15l0,0c-0.26-3.66,5.49-7.21,12.73-7.89
					l266.7-25.09c3.39-0.32,5.8,1.47,5.4,3.99l0,0C1244.47,430.09,1241.44,432.41,1238.07,432.78z"/>
			</g>
		</g>
	</g>
</g>
<g id="Character">
	<g>
		<path class="st11" d="M1417.04,660.93c-55.2,9.5-58.32,93.12-52.97,169.94c0.74,10.6,8.05,19.63,18.29,22.47
			c73.19,20.32,146.63,20.21,220.32-0.05c10.38-2.85,17.76-12.05,18.38-22.79C1632.87,626.7,1489.85,565.02,1417.04,660.93z"/>
		<path class="st12" d="M1386.36,1081.36l22.27,114.6l-55.65,10.68l-40.07-131.91l-34.25-112.73c-6.1-20.08,8.91-40.34,29.89-40.34
			h50.96l69.19,163.51L1386.36,1081.36z"/>
		<path class="st13" d="M1683.58,1045.03c-22.5-23.76-42.41-49-59.07-76.08l-38.23,32.27c10.12,15.25,20.37,28.7,30.84,39.36
			L1683.58,1045.03z"/>
		<polygon class="st14" points="1437.3,899.12 1530.97,899.12 1542.69,919.75 1451.19,948.3 		"/>
		<path class="st15" d="M1413.79,751.52c-7.39,17.95-13.03,36.67-16.54,56.33c-3.11,17.4,6.54,34.61,22.98,41.1
			c50.57,19.96,100.96,19.82,151.21-3.23c10.87-4.99,17.25-16.47,15.85-28.35c-2.95-25.04-8.23-47.26-17.22-64.96L1413.79,751.52z"
			/>
		<path class="st13" d="M1514.8,888.58c-21.94-5.92-41.28-15.05-57.18-28.39c0.11-1.48,0.19-2.99,0.25-4.51l47.72,6.6
			C1507.6,871.63,1510.67,880.39,1514.8,888.58z"/>
		<path class="st16" d="M1570.06,752.4v32.94c0,43.16-34.98,78.14-78.14,78.14c-43.16,0-78.14-34.99-78.14-78.14v-33.82
			c21.71-10.48,36.67-32.71,36.67-58.43C1507.21,693.09,1502.08,744.36,1570.06,752.4z"/>
		<path class="st16" d="M1539,920.14v79.52h-101.7v-79.14c10.96-17.22,18.61-36.72,20.32-60.33c15.9,13.34,35.23,22.47,57.18,28.39
			C1520.68,900.27,1528.75,910.79,1539,920.14z"/>
		<path class="st17" d="M1503.19,984.5c-30.95-27.22-55.49-55.46-65.89-85.39l-53.77,7.43c-9.81,1.35-18.56,6.87-24.02,15.13
			l-33.44,50.61c-3.29,4.98-1.15,11.73,4.41,13.9l28.96,11.32c25.87,70.48,34.77,141.09,23.64,218.32
			c79.13-34.71,140.71-46.99,176.95-26.91c-3.85-54.38-0.51-107.22,10.03-158.52l60.46-53.6c4.7-4.17,5.49-11.21,1.84-16.32
			l-27.06-37.84c-5.01-7-12.52-11.8-20.98-13.41l-53.35-10.12C1532.55,931.18,1521.28,958.97,1503.19,984.5z"/>
		<path class="st12" d="M1643.54,1593.54L1643.54,1593.54c-2.55,0-5.02-0.93-6.94-2.61c-35.31-30.74-92.08-50.67-156.08-50.67
			c-64,0-120.76,19.93-156.07,50.67c-1.93,1.68-4.39,2.61-6.94,2.61l0,0c-9.35,0-14.06-11.2-7.59-17.95
			c37.85-39.54,100.15-65.34,170.6-65.34c70.45,0,132.76,25.8,170.61,65.34C1657.6,1582.34,1652.89,1593.54,1643.54,1593.54z"/>
		<polygon class="st13" points="1344.93,991.83 1391.71,1010.12 1383.65,1054.59 1316.87,1074.73 		"/>
		<path class="st18" d="M1505.06,800.27l7.82-6.43c0.87-0.71,0.91-2.02,0.1-2.79c-4.44-4.21-8.02-9.2-10.66-15.05
			c1.53,5.43,4.1,10.49,7.19,14.56c0.97,1.28,0.92,3.06-0.09,4.31L1505.06,800.27z"/>
		<path class="st18" d="M1501.96,820.08c-14.38,2.08-27.04-0.1-37.99-6.56C1459.81,845.32,1500.62,845.85,1501.96,820.08z"/>
		<polygon class="st16" points="1500.26,1570.62 1453.83,1560.12 1473.43,1473.42 1539,1478.2 		"/>
		<path class="st18" d="M1455.66,777.33L1455.66,777.33c-2.97,0-5.37-2.4-5.37-5.37v-20.08c0-2.97,2.4-5.37,5.37-5.37l0,0
			c2.97,0,5.37,2.4,5.37,5.37v20.08C1461.03,774.92,1458.63,777.33,1455.66,777.33z"/>
		<path class="st18" d="M1455.66,746.51c3.86,0.11,7.53-1.39,11.06-3.89c-1.01,3.88-3.36,6.84-6.64,8.47L1455.66,746.51z"/>
		<path class="st18" d="M1529.55,777.33L1529.55,777.33c-2.97,0-5.37-2.4-5.37-5.37v-20.08c0-2.97,2.4-5.37,5.37-5.37l0,0
			c2.97,0,5.37,2.4,5.37,5.37v20.08C1534.93,774.92,1532.52,777.33,1529.55,777.33z"/>
		<path class="st18" d="M1529.55,746.51c3.86,0.11,7.53-1.39,11.06-3.89c-1.01,3.88-3.36,6.84-6.64,8.47L1529.55,746.51z"/>
		<path class="st18" d="M1438.47,729.43c-1.24,1.11-3.19,0-2.85-1.63c0.59-2.84,1.99-5.58,4.06-7.89c0.37-0.47,0.82-0.85,1.26-1.25
			c0.44-0.39,0.9-0.78,1.36-1.16c0.49-0.32,0.98-0.65,1.49-0.96c0.51-0.31,1.01-0.66,1.54-0.88c0.53-0.25,1.07-0.49,1.6-0.72
			c0.54-0.26,1.09-0.43,1.64-0.59c1.1-0.33,2.22-0.67,3.33-0.82c4.47-0.78,8.88-0.43,12.99,0.62c1.02,0.3,2.03,0.62,3.02,0.97
			c1,0.33,1.95,0.81,2.91,1.25c0.47,0.24,0.95,0.46,1.41,0.71c0.46,0.26,0.92,0.53,1.37,0.83c0.01,0.01,0.02,0.01,0.03,0.02
			c1.03,0.65,0.67,2.25-0.54,2.42c-3.11,0.45-6.04,0.6-8.9,0.84c-3.78,0.32-7.37,0.6-10.71,1.19c-0.86,0.09-1.65,0.33-2.46,0.5
			l-0.61,0.12c-0.2,0.05-0.39,0.12-0.58,0.17c-0.39,0.12-0.78,0.23-1.17,0.34c-0.79,0.22-1.5,0.56-2.29,0.8
			c-0.36,0.17-0.72,0.35-1.09,0.51c-0.37,0.17-0.77,0.31-1.11,0.54C1442.24,726.35,1440.38,727.72,1438.47,729.43z"/>
		<path class="st18" d="M1549.64,729.43c1.24,1.11,3.19,0,2.85-1.63c-0.59-2.84-1.99-5.58-4.06-7.89c-0.37-0.47-0.82-0.85-1.26-1.25
			c-0.44-0.39-0.9-0.78-1.36-1.16c-0.49-0.32-0.98-0.65-1.49-0.96c-0.51-0.31-1.01-0.66-1.54-0.88c-0.53-0.25-1.07-0.49-1.6-0.72
			c-0.54-0.26-1.09-0.43-1.64-0.59c-1.1-0.33-2.22-0.67-3.33-0.82c-4.47-0.78-8.88-0.43-12.99,0.62c-1.02,0.3-2.03,0.62-3.02,0.97
			c-1,0.33-1.95,0.81-2.91,1.25c-0.47,0.24-0.95,0.46-1.41,0.71c-0.46,0.26-0.92,0.53-1.37,0.83c-0.01,0.01-0.02,0.01-0.03,0.02
			c-1.03,0.65-0.67,2.25,0.54,2.42c3.11,0.45,6.04,0.6,8.9,0.84c3.78,0.32,7.37,0.6,10.71,1.19c0.86,0.09,1.65,0.33,2.46,0.5
			l0.61,0.12c0.2,0.05,0.39,0.12,0.58,0.17c0.39,0.12,0.78,0.23,1.17,0.34c0.79,0.22,1.5,0.56,2.29,0.8
			c0.36,0.17,0.72,0.35,1.09,0.51c0.37,0.17,0.77,0.31,1.11,0.54C1545.87,726.35,1547.72,727.72,1549.64,729.43z"/>
		<path class="st16" d="M1579.16,1038.58c21.25,2.29,34.26-1.26,46.58-4.94c18.12-5.41,37.7-2.39,53.4,8.14
			c0.13,0.09,0.25,0.17,0.38,0.26c6.17,4.16,8.86,11.96,6.4,18.98c-0.61,1.73-1.29,3.4-2.05,5.02c-2.5,5.33-7.91,8.7-13.8,8.7
			l-100-0.01L1579.16,1038.58z"/>
		<path class="st19" d="M1671.13,1166.35l57.4-17.51c15.43-4.71,29.56,10.3,23.95,25.42l-25.87,69.7L1671.13,1166.35z"/>
		<polygon class="st16" points="1772.02,1593.85 1723.15,1593.85 1695.75,1470.93 1759.98,1470.93 		"/>
		<path class="st20" d="M1795.15,1475.14c-42.88,6.51-87.98,5.72-134.58,0l-42.82-291.25c13.52-9.42,28.03-15.23,43.63-17.17
			c23.59-2.93,45.81,11.77,52.57,34.57L1795.15,1475.14z"/>
		<path class="st21" d="M1530.05,1629.75h-137.3C1420.71,1538.33,1519.45,1529.79,1530.05,1629.75z"/>
		<path class="st22" d="M1530.97,1647.95h-142.61c1.16-6.39,2.64-12.46,4.39-18.2h137.3
			C1530.66,1635.46,1530.97,1641.53,1530.97,1647.95z"/>
		<path class="st23" d="M1566.4,1174.26c24.64-2.38,46.09-0.06,63.36,8.4c17.52,8.58,26.5,28.39,21.62,47.28l-68.99,261.26
			c-55.5-2.2-106.12-10.27-150.54-25.81L1566.4,1174.26z"/>
		<g>
			<g>
				<path class="st22" d="M1490.64,1600.92c-2.31,0-4.54-1.26-5.67-3.46c-2.52-4.9-8.24-8.86-15.31-10.6
					c-6.35-1.56-19.26-2.58-34.29,8.05c-2.87,2.03-6.84,1.35-8.87-1.52c-2.03-2.87-1.35-6.84,1.52-8.87
					c14.2-10.04,30.07-13.6,44.67-10.02c10.76,2.64,19.36,8.89,23.6,17.14c1.61,3.13,0.37,6.96-2.75,8.57
					C1492.61,1600.69,1491.62,1600.92,1490.64,1600.92z"/>
			</g>
		</g>
		<path class="st12" d="M1320.86,1606.51v9.61c0,4.03-3.27,7.3-7.3,7.3l0,0c0,13.94-11.77,25.12-25.91,24.16
			c-11.94-0.81-21.62-10.47-22.46-22.41c-1-14.16,10.2-25.96,24.15-25.96h24.22C1317.59,1599.21,1320.86,1602.47,1320.86,1606.51z"
			/>
		<path class="st12" d="M1636.37,1606.51v9.61c0,4.03,3.27,7.3,7.3,7.3l0,0c0,13.94,11.77,25.12,25.91,24.16
			c11.94-0.81,21.62-10.47,22.46-22.41c1-14.16-10.2-25.96-24.15-25.96h-24.22C1639.63,1599.21,1636.37,1602.47,1636.37,1606.51z"/>
		<polygon class="st24" points="1407.99,1293.8 1352.99,1293.8 1352.99,1209.04 1396.01,1209.04 		"/>
		<path class="st23" d="M1510.83,1287.29h-106.54c-20.8-15.25-28.31-40.64-24.47-74.68l154.71-41.04L1510.83,1287.29z"/>
		<path class="st22" d="M1876.97,1647.95h-160.19c-0.18-6.22-0.26-12.33-0.11-18.2h159.24
			C1876.63,1635.43,1876.98,1641.48,1876.97,1647.95z"/>
		<path class="st21" d="M1875.9,1629.75h-159.24c0.33-13.97,1.92-26.56,6.48-35.9c24.36-2.98,44.03-11.7,53.93-32.34
			c2.62-5.46,8.54-8.55,14.49-7.38C1842.21,1564.07,1870.27,1585.08,1875.9,1629.75z"/>
		<g>
			<g>
				<path class="st22" d="M1819.33,1561.55l-20.58,35.49c-1.18,2.04-3.32,3.17-5.51,3.17c-1.09,0-2.18-0.28-3.19-0.86
					c-3.04-1.76-4.07-5.65-2.31-8.69l19.14-33C1811.23,1558.85,1815.38,1560.14,1819.33,1561.55z"/>
			</g>
		</g>
		<g>
			<g>
				<path class="st22" d="M1846.58,1575.67l-16.39,28.26c-1.18,2.04-3.32,3.17-5.51,3.17c-1.09,0-2.18-0.28-3.19-0.86
					c-3.04-1.77-4.07-5.66-2.31-8.7l16.65-28.72h0.01C1839.69,1570.93,1843.27,1573.2,1846.58,1575.67z"/>
			</g>
		</g>
		<path class="st12" d="M1361.03,1288.44c51.22-8.67,99.6-14.95,141.65-15.91l-5.86,42.55h-148.85L1361.03,1288.44z"/>
		<path class="st19" d="M1525.11,1044.65c-7.72,4.97-14.82,11.28-21.4,18.76c-3.87,4.4-0.7,11.32,5.16,11.32h92.55
			c5.64,0,9.38-5.83,7.05-10.98C1594.62,1033.11,1566.83,1026.74,1525.11,1044.65z"/>
		<path class="st16" d="M1316.87,1074.73c3.54-8.41,7.45-16.4,11.91-23.79c9.67-16.02,28.12-24.61,46.62-21.81
			c36.27,5.49,75.62,8.18,117.21,8.81c3.81,0.06,7.41-1.65,9.88-4.55c3.94-4.62,8.46-8.74,13.51-12.39c0.29-0.21,0.6-0.41,0.91-0.59
			c15.83-8.98,36.4-15.48,53.33-13.1c3.04,0.43,5.9,1.72,8.27,3.67c7.53,6.2,14.19,15,20.37,25.29c2.59,4.32,1.38,9.92-2.8,12.74
			c-10.47,7.06-22.91,11.37-37.66,12.46c-5.46,0.4-10.85-1.52-14.85-5.26c-5.54-5.17-11.52-9.42-18.47-11.56
			c-5.24,3.45-9.93,7.13-14.02,11.08c-43.22,1.9-77.01,11.55-119.38,26.9L1316.87,1074.73z"/>
		<path class="st19" d="M1542.45,1148.85l-189.47,57.79c-6.91,2.11-11.63,8.49-11.63,15.72v92.41c0,7.81,6.33,14.14,14.14,14.14
			h141.63c7.14,0,13.51-4.44,15.99-11.12l53.29-143.52C1572.01,1159.14,1557.87,1144.14,1542.45,1148.85z M1527.17,1191.34
			l-32.25,106.91c-2.2,7.3-8.93,12.3-16.55,12.3h-111.6c-3.17,0-5.74-2.57-5.74-5.74v-76.95c0-2.64,1.8-4.93,4.36-5.57l154.89-38.24
			C1524.61,1182.99,1528.47,1187.06,1527.17,1191.34z"/>
	</g>
</g>
<g id="Desk_And_PC">
	<g>
		<path class="st12" d="M2040.11,749.62l-75.7,240.79c-2.71,8.62-10.7,14.48-19.73,14.48h-324.93
			c201.7-34.43,333.99-141.07,400.62-282.15C2034.35,722.73,2044.3,736.29,2040.11,749.62z"/>
		<path class="st19" d="M2020.38,722.73c-66.64,141.08-198.93,247.73-400.62,282.15c-13.97,0-23.92-13.56-19.73-26.88l75.69-240.79
			c2.7-8.62,10.69-14.48,19.73-14.48H2020.38z"/>
		<path class="st19" d="M1792.9,916.33l35.7,131.42c1.7,6.27-3.02,12.44-9.51,12.44h-92.42c-8.03,0-14.54,6.51-14.54,14.54l0,0
			h215.19c11.57,0,18.74-12.61,12.82-22.55l-84.42-141.7c-4.22-7.08-11.34-11.98-19.47-13.32c-9.49-1.57-19.66-1.69-30.57-0.2
			C1796.39,898.23,1790.34,907.33,1792.9,916.33z"/>
		
			<ellipse transform="matrix(0.9171 -0.3987 0.3987 0.9171 -231.3613 815.027)" class="st12" cx="1843.92" cy="963.78" rx="16.73" ry="30.78"/>
	</g>
	<g>
		<path class="st4" d="M1242.56,1100.46h756.5c7.1,0,12.86-5.76,12.86-12.86l0,0c0-7.1-5.76-12.86-12.86-12.86h-756.5
			c-7.1,0-12.86,5.76-12.86,12.86l0,0C1229.7,1094.71,1235.46,1100.46,1242.56,1100.46z"/>
		<polygon class="st10" points="1167.95,1647.95 1144.82,1647.95 1264.88,1100.46 1341.35,1100.46 		"/>
		<polygon class="st10" points="2048.78,1647.95 2071.91,1647.95 1951.52,1100.46 1875.06,1100.46 		"/>
	</g>
</g>
</svg>
